<?xml version="1.0" encoding="UTF-8"?>
<svg version="1.1" xmlns="http://www.w3.org/2000/svg" width="96" height="96">
<path d="M0 0 C2.10353495 -0.0810206 4.20795952 -0.13919907 6.3125 -0.1875 C7.48425781 -0.22230469 8.65601563 -0.25710937 9.86328125 -0.29296875 C13 0 13 0 14.56835938 1.08056641 C16.64384741 3.86322107 17.19844404 6.64561593 18.04296875 10.00390625 C18.21629227 10.68299545 18.38961578 11.36208466 18.56819153 12.06175232 C19.11777575 14.22632629 19.65247989 16.3942859 20.1875 18.5625 C20.55833852 20.02562063 20.9300734 21.48851437 21.30273438 22.95117188 C24 33.62932265 24 33.62932265 24 36 C34.89 35.67 45.78 35.34 57 35 C58.65 28.73 60.3 22.46 62 16 C42.2 15.505 42.2 15.505 22 15 C21.67 13.02 21.34 11.04 21 9 C37.83 9 54.66 9 72 9 C70.88625 13.351875 69.7725 17.70375 68.625 22.1875 C68.10413818 24.23360474 68.10413818 24.23360474 67.57275391 26.32104492 C67.29351074 27.40490479 67.01426758 28.48876465 66.7265625 29.60546875 C66.44377441 30.71043701 66.16098633 31.81540527 65.86962891 32.95385742 C63.70716336 40.52855776 63.70716336 40.52855776 60 43 C60.495 43.495 60.99 43.99 61.5 44.5 C63.57951938 47.96586564 63.80019973 51.11441476 63 55 C61.01078114 57.9838283 59.61497432 59.60276841 56.0625 60.4765625 C52.13936508 60.75890933 50.32887629 60.21925086 47 58 C44.24222937 53.86334406 44.37611802 51.91307062 45 47 C45.99 45.68 46.98 44.36 48 43 C43.05 43 38.1 43 33 43 C33.99 44.32 34.98 45.64 36 47 C36.62388198 51.91307062 36.75777063 53.86334406 34 58 C30.67112371 60.21925086 28.86063492 60.75890933 24.9375 60.4765625 C21.38502568 59.60276841 19.98921886 57.9838283 18 55 C17.19980027 51.11441476 17.42048062 47.96586564 19.5 44.5 C19.995 44.005 20.49 43.51 21 43 C20.38415039 42.48646973 19.76830078 41.97293945 19.13378906 41.44384766 C16.4480652 38.36786415 15.84141281 35.8522728 14.859375 31.8984375 C14.68746643 31.22076324 14.51555786 30.54308899 14.33843994 29.84487915 C13.79580115 27.69129502 13.27299285 25.53342904 12.75 23.375 C12.38404387 21.91635718 12.01686884 20.45801959 11.6484375 19 C9 8.41921907 9 8.41921907 9 6 C6.03 6 3.06 6 0 6 C0 4.02 0 2.04 0 0 Z M25 49 C25 50.32 25 51.64 25 53 C26.32 53 27.64 53 29 53 C29 51.68 29 50.36 29 49 C27.68 49 26.36 49 25 49 Z M52 49 C52 50.32 52 51.64 52 53 C53.32 53 54.64 53 56 53 C56 51.68 56 50.36 56 49 C54.68 49 53.36 49 52 49 Z " fill="#000000" transform="translate(12,21)"/>
</svg>
