<?xml version="1.0" encoding="UTF-8"?>
<svg version="1.1" xmlns="http://www.w3.org/2000/svg" width="96" height="96">
<path d="M0 0 C2.04536706 1.45042189 3.92173379 2.98993576 5.8046875 4.64453125 C6.41054687 5.14597656 7.01640625 5.64742187 7.640625 6.1640625 C14.83293586 12.61829779 19.46048466 21.95107765 20.04296875 31.5859375 C20.25402155 40.52373295 20.19853975 48.56240886 15.8046875 56.64453125 C12.95902275 59.490196 11.01940458 58.92366599 7.03173828 58.96679688 C6.33561432 58.97672668 5.63949036 58.98665649 4.92227173 58.99688721 C2.61480789 59.02614461 0.307619 59.039736 -2 59.05078125 C-3.60181691 59.06228306 -5.20363372 59.07379854 -6.80545044 59.08532715 C-10.16637456 59.10635113 -13.52720295 59.11803372 -16.88818359 59.125 C-21.19517883 59.13597117 -25.50090986 59.18402299 -29.80750847 59.24094391 C-33.11723525 59.27819225 -36.42665739 59.28860744 -39.73657608 59.29167175 C-41.32425983 59.29772721 -42.91193805 59.31379323 -44.49941635 59.34004211 C-46.72177993 59.37416538 -48.94105492 59.37041064 -51.16357422 59.35742188 C-53.05981033 59.36835876 -53.05981033 59.36835876 -54.99435425 59.3795166 C-58.1953125 58.64453125 -58.1953125 58.64453125 -60.55838013 55.80847168 C-65.56404684 46.13328194 -65.67157393 34.452533 -63.390625 23.93359375 C-59.45264199 12.49986377 -50.98692779 3.27504446 -40.1328125 -2.04296875 C-38.87791016 -2.66751953 -38.87791016 -2.66751953 -37.59765625 -3.3046875 C-26.119406 -8.3252555 -10.43329617 -6.44191062 0 0 Z M-46.1953125 7.64453125 C-45.8859375 8.22203125 -45.5765625 8.79953125 -45.2578125 9.39453125 C-44.26947886 11.48747309 -43.6784512 13.389884 -43.1953125 15.64453125 C-46.13234634 15.01516686 -48.53319878 14.02032952 -51.1953125 12.64453125 C-56.40296361 20.01384886 -59.56686252 25.35578071 -59.1953125 34.64453125 C-56.8853125 34.64453125 -54.5753125 34.64453125 -52.1953125 34.64453125 C-52.1953125 35.96453125 -52.1953125 37.28453125 -52.1953125 38.64453125 C-54.5053125 38.64453125 -56.8153125 38.64453125 -59.1953125 38.64453125 C-59.10689974 40.18718156 -58.99871555 41.72870248 -58.8828125 43.26953125 C-58.79580078 44.55730469 -58.79580078 44.55730469 -58.70703125 45.87109375 C-58.20266049 49.32358912 -58.20266049 49.32358912 -55.1953125 54.64453125 C-33.4153125 54.64453125 -11.6353125 54.64453125 10.8046875 54.64453125 C13.67981482 48.9966195 13.67981482 48.9966195 14.4921875 43.26953125 C14.55792969 42.39554688 14.62367187 41.5215625 14.69140625 40.62109375 C14.72878906 39.96882813 14.76617187 39.3165625 14.8046875 38.64453125 C12.4946875 38.64453125 10.1846875 38.64453125 7.8046875 38.64453125 C7.8046875 37.32453125 7.8046875 36.00453125 7.8046875 34.64453125 C10.1146875 34.64453125 12.4246875 34.64453125 14.8046875 34.64453125 C15.46613053 27.0379364 12.98909113 20.67842518 8.5546875 14.51953125 C7.9771875 13.90078125 7.3996875 13.28203125 6.8046875 12.64453125 C6.2271875 12.95390625 5.6496875 13.26328125 5.0546875 13.58203125 C2.96174566 14.57036489 1.05933475 15.16139255 -1.1953125 15.64453125 C-0.56594811 12.70749741 0.42888923 10.30664497 1.8046875 7.64453125 C-5.56463011 2.43688014 -10.90656196 -0.72701877 -20.1953125 -0.35546875 C-20.1953125 1.95453125 -20.1953125 4.26453125 -20.1953125 6.64453125 C-21.5153125 6.64453125 -22.8353125 6.64453125 -24.1953125 6.64453125 C-24.1953125 4.33453125 -24.1953125 2.02453125 -24.1953125 -0.35546875 C-32.52104333 -1.07944534 -40.08112068 1.93795221 -46.1953125 7.64453125 Z " fill="#FFD369" transform="translate(70.1953125,21.35546875)"/>
<path d="M0 0 C1.32 0 2.64 0 4 0 C5.01704963 2.49419314 6.01349355 4.99374037 7 7.5 C7.28617188 8.19609375 7.57234375 8.8921875 7.8671875 9.609375 C9.82171707 14.63530819 10.41862681 18.60436552 10 24 C8.5 26.5 8.5 26.5 6 28 C1.97901723 28.791013 -0.96411027 28.62153384 -4.5 26.5 C-6.57515573 23.04140711 -6.42048076 19.90055732 -6 16 C-5.22468876 13.06660591 -4.15263104 10.30369712 -3 7.5 C-2.71382812 6.77296875 -2.42765625 6.0459375 -2.1328125 5.296875 C-1.43395426 3.52643412 -0.71868368 1.76248618 0 0 Z M1 10 C-0.485 15.445 -0.485 15.445 -2 21 C-1.01 21.99 -0.02 22.98 1 24 C3.1477633 24.00478037 3.1477633 24.00478037 5 23 C6.18414294 19.44757118 5.69535532 18.30169438 4.5625 14.8125 C4.27503906 13.91144531 3.98757812 13.01039062 3.69140625 12.08203125 C3.46324219 11.39496094 3.23507813 10.70789062 3 10 C2.34 10 1.68 10 1 10 Z " fill="#FFD369" transform="translate(46,41)"/>
</svg>
