<?xml version="1.0" encoding="UTF-8"?>
<svg version="1.1" xmlns="http://www.w3.org/2000/svg" width="96" height="96">
<path d="M0 0 C8.80288754 6.34043826 15.4186507 14.72648904 17.58203125 25.4921875 C18.92007691 37.90936834 17.85729499 48.88109459 10.39453125 59.2421875 C3.58210875 67.3274193 -4.72289951 73.55522767 -15.48876953 74.71533203 C-28.40007937 75.61089799 -39.16843729 74.04490094 -49.3515625 65.46484375 C-56.43946419 58.69851037 -61.77369308 50.79045775 -62.65625 40.79296875 C-62.6661483 38.6912303 -62.55549384 36.58944507 -62.41796875 34.4921875 C-59.44796875 34.4921875 -56.47796875 34.4921875 -53.41796875 34.4921875 C-53.34320313 35.17023437 -53.2684375 35.84828125 -53.19140625 36.546875 C-51.90774797 45.63316207 -48.85842864 53.0830798 -41.54296875 58.9296875 C-33.1462442 64.50119834 -25.49682321 65.5113975 -15.41796875 64.4921875 C-6.74644198 62.33011782 -0.82723099 58.03138983 3.89453125 50.4296875 C8.52068612 42.54943944 9.04266486 33.44585712 6.86328125 24.5625 C3.31358723 15.14436022 -2.5305219 9.92868536 -11.41796875 5.4921875 C-19.6221619 2.68415438 -29.53325054 3.70058456 -37.28515625 7.26953125 C-40.36819097 9.03691196 -42.83949339 11.04942137 -45.41796875 13.4921875 C-44.78568359 14.21535156 -44.78568359 14.21535156 -44.140625 14.953125 C-43.59277344 15.58476562 -43.04492188 16.21640625 -42.48046875 16.8671875 C-41.93519531 17.49367188 -41.38992187 18.12015625 -40.828125 18.765625 C-39.41796875 20.4921875 -39.41796875 20.4921875 -38.41796875 22.4921875 C-46.33796875 22.4921875 -54.25796875 22.4921875 -62.41796875 22.4921875 C-62.41796875 14.5721875 -62.41796875 6.6521875 -62.41796875 -1.5078125 C-60.10796875 0.4721875 -57.79796875 2.4521875 -55.41796875 4.4921875 C-54.42796875 5.1521875 -53.43796875 5.8121875 -52.41796875 6.4921875 C-51.82371094 5.96109375 -51.22945312 5.43 -50.6171875 4.8828125 C-36.29901079 -7.31992597 -16.46707209 -10.26864269 0 0 Z " fill="#FFD369" transform="translate(70.41796875,13.5078125)"/>
<path d="M0 0 C2.64 0 5.28 0 8 0 C7.9779248 0.61407715 7.95584961 1.2281543 7.93310547 1.86083984 C7.08062062 14.39050784 7.08062062 14.39050784 11.29296875 25.6875 C13.74896397 28.07075065 16.1424758 30.12264291 19 32 C17.64062915 34.8605891 16.35479531 36.85927699 14 39 C8.17799943 36.26583618 2.552123 33.20092505 0 27 C-1.30379156 18.09541074 -0.61195536 8.94584591 0 0 Z " fill="#FFD369" transform="translate(44,24)"/>
</svg>
