<?xml version="1.0" encoding="UTF-8"?>
<svg version="1.1" xmlns="http://www.w3.org/2000/svg" width="96" height="96">
<path d="M0 0 C1.31158081 0.00737183 1.31158081 0.00737183 2.6496582 0.01489258 C14.77463001 0.23359293 24.78823194 3.0886077 34.25 10.8125 C37.73024937 15.34519592 36.72584832 21.93670746 36.1875 27.3125 C34.31764179 29.18235821 31.15602379 28.44029348 28.6640625 28.44189453 C27.98277283 28.44364685 27.30148315 28.44539917 26.59954834 28.44720459 C24.33717333 28.45162242 22.07487587 28.44868538 19.8125 28.4453125 C18.2469074 28.44598556 16.6813149 28.4469556 15.11572266 28.44821167 C11.83039355 28.44968855 8.54509158 28.44753441 5.25976562 28.44287109 C1.03929484 28.4371738 -3.18111236 28.44045286 -7.40158081 28.44644356 C-10.63566572 28.45004944 -13.86973545 28.44891046 -17.1038208 28.44631577 C-18.66042081 28.44564657 -20.21702218 28.44647466 -21.77362061 28.44879532 C-23.94547196 28.4513223 -26.11721896 28.44748065 -28.2890625 28.44189453 C-29.52736816 28.44109894 -30.76567383 28.44030334 -32.04150391 28.43948364 C-34.8125 28.3125 -34.8125 28.3125 -35.8125 27.3125 C-37.20965829 15.10947192 -37.20965829 15.10947192 -33.5 10.3125 C-24.65492116 1.90550289 -11.70021727 -0.07825094 0 0 Z " fill="#FFD369" transform="translate(47.8125,55.6875)"/>
<path d="M0 0 C4.8846525 2.26787438 7.73212562 5.1153475 10 10 C10.75381535 15.5997712 10.77303575 20.33499991 8.375 25.5 C3.80134327 30.3143755 0.6912538 32.25156236 -6 32.5 C-12.6912538 32.25156236 -15.80134327 30.3143755 -20.375 25.5 C-22.77303575 20.33499991 -22.75381535 15.5997712 -22 10 C-17.52212837 0.3553534 -9.85292056 -1.32635469 0 0 Z " fill="#FFD369" transform="translate(54,12)"/>
<path d="M0 0 C6.08911505 -0.35818324 9.1633067 0.5685486 13.75 4.5 C16.62007052 7.94408463 16.08015567 11.75174942 16 16 C9.91088495 16.35818324 6.8366933 15.4314514 2.25 11.5 C-0.62007052 8.05591537 -0.08015567 4.24825058 0 0 Z " fill="#FFD369" transform="translate(68,36)"/>
</svg>
