<?xml version="1.0" encoding="UTF-8"?>
<svg version="1.1" xmlns="http://www.w3.org/2000/svg" width="50" height="50">
<path d="M0 0 C16.5 0 33 0 50 0 C50 11.88 50 23.76 50 36 C33.5 36 17 36 0 36 C0 24.12 0 12.24 0 0 Z M2 2 C4.83540852 7.67081705 9.22793769 10.92429013 14 15 C14.80824219 15.71800781 15.61648438 16.43601562 16.44921875 17.17578125 C17.58810547 18.14064453 17.58810547 18.14064453 18.75 19.125 C19.42546875 19.70507812 20.1009375 20.28515625 20.796875 20.8828125 C23.01341661 22.20992971 23.01341661 22.20992971 25.859375 22.0390625 C30.05871299 20.64972928 32.41007231 18.33258819 35.5 15.25 C36.59240925 14.19132311 37.68615131 13.13401968 38.78125 12.078125 C39.30976562 11.56185547 39.83828125 11.04558594 40.3828125 10.51367188 C41.99943931 9.0005248 43.67709686 7.6164798 45.40625 6.234375 C46.2621875 5.49703125 47.118125 4.7596875 48 4 C48 3.34 48 2.68 48 2 C32.82 2 17.64 2 2 2 Z M2 8 C2 16.58 2 25.16 2 34 C17.18 34 32.36 34 48 34 C48 25.42 48 16.84 48 8 C45.69 9.98 43.38 11.96 41 14 C39.04709566 15.61077148 37.08922214 17.21554931 35.125 18.8125 C31.97172498 21.30354123 31.97172498 21.30354123 29 24 C25.77394201 24.586556 24.11374795 24.79249743 21 24 C17.30414389 21.3667755 14.20517953 18.20011606 11 15 C9.49121043 13.63242718 7.97153485 12.27669321 6.4375 10.9375 C5.79683594 10.36902344 5.15617188 9.80054688 4.49609375 9.21484375 C3.19181849 7.89493939 3.19181849 7.89493939 2 8 Z " fill="#222831" transform="translate(0,7)"/>
</svg>
